<?xml version="1.0" standalone="no"?>
<!DOCTYPE svg PUBLIC "-//W3C//DTD SVG 20010904//EN"
 "http://www.w3.org/TR/2001/REC-SVG-20010904/DTD/svg10.dtd">
<svg version="1.0" xmlns="http://www.w3.org/2000/svg"
 width="500.000000pt" height="500.000000pt" viewBox="0 0 500.000000 500.000000"
 preserveAspectRatio="xMidYMid meet">
<metadata>
Created by potrace 1.14, written by Peter Selinger 2001-2017
</metadata>
<g transform="translate(0.000000,500.000000) scale(0.100000,-0.100000)"
fill="#000000" stroke="none">
<path d="M2760 4371 c0 -6 9 -44 20 -84 28 -98 78 -417 91 -575 22 -284 -42
-478 -208 -621 -133 -114 -343 -152 -539 -96 -106 31 -169 71 -259 166 -100
107 -151 230 -162 391 l-6 88 -45 -58 c-116 -148 -247 -371 -316 -538 -71
-170 -133 -411 -156 -608 -18 -149 -15 -394 4 -501 33 -177 110 -368 208 -514
99 -147 319 -344 482 -432 85 -45 239 -99 359 -126 116 -25 418 -25 534 0 120
27 274 81 359 126 159 86 364 268 471 418 100 141 188 354 218 528 20 117 22
357 5 522 -32 297 -126 626 -255 888 -124 252 -171 330 -321 530 -79 106 -318
375 -333 375 -4 0 -39 30 -79 66 -40 36 -72 61 -72 55z m434 -1701 c51 -224
69 -539 40 -704 -18 -105 -34 -148 -88 -239 -110 -185 -309 -333 -498 -371
-89 -18 -248 -21 -334 -5 -127 23 -297 157 -350 277 -61 138 -67 273 -17 425
24 74 33 89 97 152 88 88 177 133 331 170 245 58 355 100 507 192 80 49 128
86 190 152 46 47 86 82 89 76 4 -5 19 -62 33 -125z"/>
</g>
</svg>
